<svg width="59" height="22" viewBox="0 0 59 22" fill="none" xmlns="http://www.w3.org/2000/svg">
<path d="M4.02344 18.543C3.24219 18.7383 2.69531 18.8359 2.38281 18.8359C2.07812 18.8359 1.82812 18.7891 1.63281 18.6953C1.4375 18.5938 1.26172 18.4609 1.10547 18.2969C0.761719 17.9375 0.589844 17.5781 0.589844 17.2188C0.589844 16.8516 0.664062 16.5391 0.8125 16.2812C0.960938 16.0234 1.15625 15.7969 1.39844 15.6016C1.9375 15.1797 2.45703 14.9688 2.95703 14.9688C3.45703 14.9688 3.87891 14.9922 4.22266 15.0391C5.21484 14.3594 6.22656 13.1562 7.25781 11.4297C7.70312 10.6719 8.14062 9.87891 8.57031 9.05078C9 8.21484 9.4375 7.39453 9.88281 6.58984C10.3359 5.77734 10.8047 5.00781 11.2891 4.28125C11.7734 3.54687 12.2969 2.89844 12.8594 2.33594C14.0859 1.125 15.4297 0.519531 16.8906 0.519531C18.0469 0.519531 18.9297 0.851562 19.5391 1.51562C20.0781 2.10938 20.3477 2.88672 20.3477 3.84766C20.3477 5.37109 19.7578 6.79688 18.5781 8.125C17.8516 8.92969 17.0859 9.49609 16.2812 9.82422C15.8672 9.98828 15.4844 10.0703 15.1328 10.0703C14.7812 10.0703 14.4922 9.98438 14.2656 9.8125C13.7578 9.41406 13.5039 8.86328 13.5039 8.16016C13.5039 7.94922 13.5391 7.76172 13.6094 7.59766C13.7891 7.62109 13.9805 7.63281 14.1836 7.63281C14.3945 7.63281 14.6602 7.60156 14.9805 7.53906C15.3008 7.47656 15.6484 7.35547 16.0234 7.17578C16.4062 6.99609 16.7617 6.77344 17.0898 6.50781C17.418 6.24219 17.7031 5.94922 17.9453 5.62891C18.4609 4.94922 18.7188 4.26953 18.7188 3.58984C18.7188 2.78516 18.4062 2.22656 17.7812 1.91406C17.5703 1.80469 17.2578 1.75 16.8438 1.75C16.4297 1.75 16 1.87891 15.5547 2.13672C15.1094 2.39453 14.6992 2.74609 14.3242 3.19141C13.957 3.62891 13.6172 4.14453 13.3047 4.73828C13 5.33203 12.7109 5.96484 12.4375 6.63672C12.1719 7.30078 11.9141 7.98828 11.6641 8.69922C11.4219 9.41016 11.1797 10.1055 10.9375 10.7852C10.7031 11.4648 10.4609 12.1094 10.2109 12.7188C9.96875 13.3281 9.71094 13.8672 9.4375 14.3359C8.82812 15.3672 8.16797 15.9258 7.45703 16.0117C9.62109 16.7305 11.625 17.2188 13.4688 17.4766C13.8594 17.5312 14.1992 17.5586 14.4883 17.5586C14.7773 17.5586 15.0586 17.5312 15.332 17.4766C15.6055 17.4219 15.8594 17.3359 16.0938 17.2188C16.625 16.9609 16.9922 16.6133 17.1953 16.1758C17.7422 16.2148 18.0156 16.4297 18.0156 16.8203C18.0156 17.2031 17.957 17.5938 17.8398 17.9922C17.7227 18.3828 17.5586 18.7578 17.3477 19.1172C17.1445 19.4766 16.8984 19.8125 16.6094 20.125C16.3281 20.4375 16.0156 20.707 15.6719 20.9336C14.9531 21.418 14.2227 21.6602 13.4805 21.6602C12.7461 21.6602 12.0859 21.5898 11.5 21.4492C10.9219 21.3086 10.375 21.1289 9.85938 20.9102C9.35156 20.6992 8.86328 20.4648 8.39453 20.207C7.92578 19.9492 7.46094 19.7031 7 19.4688C5.89844 18.9297 4.90625 18.6211 4.02344 18.543ZM30.0859 13.8789C30.0859 14.8164 30.418 15.2852 31.082 15.2852C31.6602 15.2852 32.3047 15.0234 33.0156 14.5C33.6484 14.0234 34.2031 13.4297 34.6797 12.7188C35.0312 12.6953 35.207 12.8398 35.207 13.1523C35.207 13.418 35.043 13.8242 34.7148 14.3711C34.3945 14.918 34.082 15.3906 33.7773 15.7891C33.4727 16.1875 33.1328 16.5781 32.7578 16.9609C32.3828 17.3438 31.9844 17.6875 31.5625 17.9922C30.6172 18.6641 29.6953 19 28.7969 19C27.4375 19 26.5312 18.5156 26.0781 17.5469C25.2188 18.1875 24.3125 18.6289 23.3594 18.8711C23.0312 18.957 22.6641 19 22.2578 19C21.8594 19 21.4609 18.9297 21.0625 18.7891C20.6719 18.6406 20.3359 18.4297 20.0547 18.1562C19.4766 17.5938 19.1875 16.8203 19.1875 15.8359C19.1875 14.7344 19.5625 13.5781 20.3125 12.3672C20.9375 11.3594 21.7344 10.4688 22.7031 9.69531C23.5938 8.99219 24.3125 8.64062 24.8594 8.64062C25.1562 8.64062 25.4922 8.875 25.8672 9.34375C25.1016 9.88281 24.4414 10.5703 23.8867 11.4062C23.2695 12.3359 22.9609 13.1758 22.9609 13.9258C22.9609 14.832 23.3398 15.2852 24.0977 15.2852C24.8477 15.2852 25.4375 15.1562 25.8672 14.8984C26.1719 13.6797 26.8555 12.4219 27.918 11.125C28.9727 9.83594 29.9375 9.02734 30.8125 8.69922C31.0938 8.59766 31.4766 8.73047 31.9609 9.09766C32.0781 9.18359 32.168 9.25781 32.2305 9.32031C31.5664 9.89062 31.0273 10.6641 30.6133 11.6406C30.2617 12.4688 30.0859 13.2148 30.0859 13.8789ZM36.707 18.5312C36.707 18.8438 36.4414 19 35.9102 19C35.3867 19 34.9453 18.9492 34.5859 18.8477C34.2344 18.7383 33.9531 18.5664 33.7422 18.332C33.3359 17.8945 33.1328 17.1445 33.1328 16.082C33.1328 14.3789 34.0078 12.2539 35.7578 9.70703C36.75 8.26953 37.6875 7.08984 38.5703 6.16797C39.4609 5.24609 40.1562 4.57031 40.6562 4.14062C41.7422 3.20312 42.5078 2.73438 42.9531 2.73438C43.2656 2.73438 43.5625 2.875 43.8438 3.15625C42.3438 4.625 40.9883 6.37109 39.7773 8.39453C39.332 9.13672 38.9219 9.92188 38.5469 10.75C39.8828 9.72656 41.2578 9.05469 42.6719 8.73438C43.1172 8.63281 43.5352 8.58203 43.9258 8.58203C44.6758 8.58203 45.0508 8.92578 45.0508 9.61328C45.0508 10.2617 44.6484 11.0234 43.8438 11.8984C43.1484 12.6484 42.375 13.2578 41.5234 13.7266C41.6953 14.2266 41.8945 14.6133 42.1211 14.8867C42.3477 15.1523 42.6406 15.2852 43 15.2852C43.3672 15.2852 43.7148 15.2148 44.043 15.0742C44.3789 14.9258 44.707 14.7344 45.0273 14.5C45.6602 14.0234 46.2148 13.4297 46.6914 12.7188C47.043 12.6953 47.2188 12.8398 47.2188 13.1523C47.2188 13.4023 47.0547 13.8086 46.7266 14.3711C46.4062 14.9258 46.0898 15.4062 45.7773 15.8125C45.4648 16.2188 45.1133 16.6211 44.7227 17.0195C44.332 17.4102 43.9141 17.7578 43.4688 18.0625C42.4688 18.7578 41.4883 19.1055 40.5273 19.1055C38.9805 19.1055 38.1641 17.7188 38.0781 14.9453C38.0703 14.5625 38.0625 14.2109 38.0547 13.8906C39.0078 13.5312 39.8438 13.125 40.5625 12.6719C41.2891 12.2188 41.8008 11.875 42.0977 11.6406C42.7695 11.0938 43.1055 10.6289 43.1055 10.2461C43.1055 10.0742 43.0117 9.98828 42.8242 9.98828C42.6367 9.98828 42.418 10.0312 42.168 10.1172C41.918 10.1953 41.6367 10.3086 41.3242 10.457C41.0117 10.5977 40.6797 10.7695 40.3281 10.9727C39.9844 11.1758 39.6445 11.3984 39.3086 11.6406C38.5508 12.2031 37.9688 12.7578 37.5625 13.3047C37.0234 15.0391 36.7383 16.7812 36.707 18.5312ZM49.6445 14.3945C50.0977 15.207 51.125 15.6133 52.7266 15.6133C53.7266 15.6133 54.668 15.3711 55.5508 14.8867C56.4414 14.3945 57.2031 13.6719 57.8359 12.7188C58.1875 12.6953 58.3633 12.8398 58.3633 13.1523C58.3633 13.5039 58.1523 14.0117 57.7305 14.6758C57.3164 15.332 56.9258 15.8633 56.5586 16.2695C56.1992 16.6758 55.793 17.0547 55.3398 17.4062C54.8945 17.75 54.4141 18.0469 53.8984 18.2969C52.7812 18.8438 51.6055 19.1172 50.3711 19.1172C47.8867 19.1172 46.2734 18.4297 45.5312 17.0547C45.2656 16.5547 45.1328 15.9844 45.1328 15.3438C45.1328 14.6953 45.2422 14.1016 45.4609 13.5625C45.6875 13.0234 45.9961 12.5117 46.3867 12.0273C46.7773 11.5352 47.2422 11.082 47.7812 10.668C48.3203 10.2539 48.9062 9.89844 49.5391 9.60156C50.8828 8.95312 52.2539 8.62891 53.6523 8.62891C54.6602 8.62891 55.3516 8.94531 55.7266 9.57812C55.8594 9.79688 55.9258 10.0898 55.9258 10.457C55.9258 10.8164 55.832 11.1719 55.6445 11.5234C55.4648 11.875 55.2188 12.1953 54.9062 12.4844C54.5938 12.7656 54.2305 13.0156 53.8164 13.2344C53.4023 13.4453 52.9609 13.6289 52.4922 13.7852C51.6641 14.0664 50.7148 14.2695 49.6445 14.3945ZM49.4805 13.3047C50.4805 13.1875 51.3398 12.9102 52.0586 12.4727C52.8164 12.0039 53.1953 11.457 53.1953 10.832C53.1953 10.1992 52.9062 9.88281 52.3281 9.88281C51.5781 9.88281 50.9258 10.2422 50.3711 10.9609C49.8398 11.6484 49.543 12.4297 49.4805 13.3047Z" fill="url(#paint0_linear_201_23)"/>
<defs>
<linearGradient id="paint0_linear_201_23" x1="1" y1="27" x2="56" y2="27" gradientUnits="userSpaceOnUse">
<stop stop-color="#FD5564"/>
<stop offset="0.507532" stop-color="#EF4A75"/>
<stop offset="0.98351" stop-color="#FCA545"/>
</linearGradient>
</defs>
</svg>
