<svg width="76" height="25" viewBox="0 0 76 25" fill="none" xmlns="http://www.w3.org/2000/svg">
<path d="M0.852555 1.07373V2.32623L3.44821 4.85889C3.66361 4.59465 3.90398 4.35181 4.16601 4.13373L1.03124 1.07378H0.852509L0.852555 1.07373ZM15.9946 3.78662C14.4468 3.80368 12.8122 4.68114 11.8476 6.55375L11.4565 7.31251L11.0684 6.5522C9.84956 4.16748 7.88709 3.53504 6.18604 4.02686C4.48499 4.51876 3.02906 6.18282 2.99409 8.71736C2.95696 11.4167 4.58737 13.0458 6.43063 14.8433C8.06113 16.4333 9.84768 18.1385 10.4531 20.7173C11.6511 19.1456 12.9949 17.8411 14.2837 16.6552L10.6479 13.1206H10.6465V13.1192C10.3568 12.8353 10.2359 12.4427 10.286 12.101C10.3362 11.7593 10.5198 11.473 10.7548 11.2559C10.9899 11.0386 11.2849 10.8826 11.6176 10.8398C11.7027 10.8288 11.7886 10.8268 11.874 10.8339C12.1351 10.856 12.4029 10.9618 12.6123 11.1665C12.6126 11.1667 12.6134 11.1662 12.6137 11.1665L16.2612 14.7128L16.2641 14.7158L16.2655 14.7172C16.2867 14.7384 16.3076 14.7579 16.3285 14.7787C16.3746 14.7353 16.422 14.6918 16.4677 14.6484C18.5084 12.7101 19.9778 10.9174 20.0141 8.37746C20.0528 5.65937 18.5765 4.19936 16.8163 3.85984C16.5945 3.81737 16.3696 3.79339 16.1439 3.78812C16.0941 3.78669 16.0443 3.78617 15.9945 3.78657L15.9946 3.78662ZM11.77 11.7041C11.7569 11.705 11.7435 11.7067 11.729 11.7085C11.6128 11.7235 11.4629 11.7943 11.3496 11.899C11.2362 12.0038 11.1669 12.1339 11.1532 12.2272C11.1396 12.3199 11.144 12.3806 11.2573 12.4923L11.2587 12.4937L14.9076 16.0402L14.9092 16.0416C16.1753 17.2822 16.8415 18.1477 16.8267 19.0489C16.8192 19.4996 16.5938 19.9045 16.2626 20.2135C16.091 20.3736 15.89 20.5169 15.6636 20.6529C17.7159 21.8724 20.5784 22.9539 23.0273 23.2031C22.9769 20.8171 21.7776 18.1536 20.4419 16.1264C20.3861 16.2428 20.3272 16.3589 20.2588 16.4693C20.0386 16.824 19.7202 17.1544 19.2641 17.2779C18.8082 17.4013 18.284 17.2996 17.7041 16.9878C17.1252 16.6766 16.4618 16.1522 15.6504 15.3413L15.646 15.337L12.0014 11.7935H12C11.9247 11.7197 11.8622 11.6982 11.77 11.7041Z" fill="url(#paint0_linear_201_29)"/>
<path d="M30.5195 17.6191C29.8685 17.7819 29.4128 17.8633 29.1523 17.8633C28.8984 17.8633 28.6901 17.8242 28.5273 17.7461C28.3646 17.6615 28.2181 17.5508 28.0879 17.4141C27.8014 17.1146 27.6582 16.8151 27.6582 16.5156C27.6582 16.2096 27.7201 15.9492 27.8438 15.7344C27.9674 15.5195 28.1302 15.3307 28.332 15.168C28.7812 14.8164 29.2142 14.6406 29.6309 14.6406C30.0475 14.6406 30.3991 14.6602 30.6855 14.6992C31.5124 14.1328 32.3555 13.1302 33.2148 11.6914C33.5859 11.0599 33.9505 10.3991 34.3086 9.70898C34.6667 9.01237 35.0312 8.32878 35.4023 7.6582C35.7799 6.98112 36.1706 6.33984 36.5742 5.73438C36.9779 5.1224 37.4141 4.58203 37.8828 4.11328C38.9049 3.10417 40.0247 2.59961 41.2422 2.59961C42.2057 2.59961 42.9414 2.8763 43.4492 3.42969C43.8984 3.92448 44.123 4.57227 44.123 5.37305C44.123 6.64258 43.6315 7.83073 42.6484 8.9375C42.043 9.60807 41.4049 10.0801 40.7344 10.3535C40.3893 10.4902 40.0703 10.5586 39.7773 10.5586C39.4844 10.5586 39.2435 10.487 39.0547 10.3438C38.6315 10.0117 38.4199 9.55273 38.4199 8.9668C38.4199 8.79102 38.4492 8.63477 38.5078 8.49805C38.6576 8.51758 38.8171 8.52734 38.9863 8.52734C39.1621 8.52734 39.3835 8.5013 39.6504 8.44922C39.9173 8.39714 40.207 8.29622 40.5195 8.14648C40.8385 7.99674 41.1348 7.8112 41.4082 7.58984C41.6816 7.36849 41.9193 7.12435 42.1211 6.85742C42.5508 6.29102 42.7656 5.72461 42.7656 5.1582C42.7656 4.48763 42.5052 4.02214 41.9844 3.76172C41.8086 3.67057 41.5482 3.625 41.2031 3.625C40.8581 3.625 40.5 3.73242 40.1289 3.94727C39.7578 4.16211 39.416 4.45508 39.1035 4.82617C38.7975 5.19076 38.5143 5.62044 38.2539 6.11523C38 6.61003 37.7591 7.13737 37.5312 7.69727C37.3099 8.25065 37.0951 8.82357 36.8867 9.41602C36.6849 10.0085 36.4831 10.5879 36.2812 11.1543C36.0859 11.7207 35.8841 12.2578 35.6758 12.7656C35.474 13.2734 35.2591 13.7227 35.0312 14.1133C34.5234 14.9727 33.9733 15.4382 33.3809 15.5098C35.1842 16.1087 36.8542 16.5156 38.3906 16.7305C38.7161 16.776 38.9993 16.7988 39.2402 16.7988C39.4811 16.7988 39.7155 16.776 39.9434 16.7305C40.1712 16.6849 40.3828 16.6133 40.5781 16.5156C41.0208 16.3008 41.3268 16.0111 41.4961 15.6465C41.9518 15.679 42.1797 15.8581 42.1797 16.1836C42.1797 16.5026 42.1309 16.8281 42.0332 17.1602C41.9355 17.4857 41.7988 17.7982 41.623 18.0977C41.4538 18.3971 41.2487 18.6771 41.0078 18.9375C40.7734 19.1979 40.513 19.4225 40.2266 19.6113C39.6276 20.015 39.0189 20.2168 38.4004 20.2168C37.7884 20.2168 37.2383 20.1582 36.75 20.041C36.2682 19.9238 35.8125 19.7741 35.3828 19.5918C34.9596 19.416 34.5527 19.2207 34.1621 19.0059C33.7715 18.791 33.3841 18.5859 33 18.3906C32.082 17.9414 31.2552 17.6842 30.5195 17.6191ZM52.2383 13.7324C52.2383 14.5137 52.515 14.9043 53.0684 14.9043C53.5501 14.9043 54.0872 14.6862 54.6797 14.25C55.207 13.8529 55.6693 13.3581 56.0664 12.7656C56.3594 12.7461 56.5059 12.8665 56.5059 13.127C56.5059 13.3483 56.3691 13.6868 56.0957 14.1426C55.8288 14.5983 55.5684 14.9922 55.3145 15.3242C55.0605 15.6562 54.7773 15.9818 54.4648 16.3008C54.1523 16.6198 53.8203 16.9062 53.4688 17.1602C52.681 17.7201 51.9128 18 51.1641 18C50.0312 18 49.276 17.5964 48.8984 16.7891C48.1823 17.3229 47.4271 17.6908 46.6328 17.8926C46.3594 17.9642 46.0534 18 45.7148 18C45.3828 18 45.0508 17.9414 44.7188 17.8242C44.3932 17.7005 44.1133 17.5247 43.8789 17.2969C43.3971 16.8281 43.1562 16.1836 43.1562 15.3633C43.1562 14.4453 43.4688 13.4818 44.0938 12.4727C44.6146 11.6328 45.2786 10.8906 46.0859 10.2461C46.8281 9.66016 47.4271 9.36719 47.8828 9.36719C48.1302 9.36719 48.4102 9.5625 48.7227 9.95312C48.0846 10.4023 47.5345 10.9753 47.0723 11.6719C46.5579 12.4466 46.3008 13.1465 46.3008 13.7715C46.3008 14.5267 46.6165 14.9043 47.248 14.9043C47.873 14.9043 48.3646 14.7969 48.7227 14.582C48.9766 13.5664 49.5462 12.5182 50.4316 11.4375C51.3105 10.3633 52.1146 9.68945 52.8438 9.41602C53.0781 9.33138 53.3971 9.44206 53.8008 9.74805C53.8984 9.81966 53.9733 9.88151 54.0254 9.93359C53.472 10.4089 53.0228 11.0534 52.6777 11.8672C52.3848 12.5573 52.2383 13.179 52.2383 13.7324ZM57.7559 17.6094C57.7559 17.8698 57.5345 18 57.0918 18C56.6556 18 56.2878 17.9577 55.9883 17.873C55.6953 17.7819 55.4609 17.6387 55.2852 17.4434C54.9466 17.0788 54.7773 16.4538 54.7773 15.5684C54.7773 14.1491 55.5065 12.3783 56.9648 10.2559C57.7917 9.05794 58.5729 8.07487 59.3086 7.30664C60.0508 6.53841 60.6302 5.97526 61.0469 5.61719C61.9518 4.83594 62.5898 4.44531 62.9609 4.44531C63.2214 4.44531 63.4688 4.5625 63.7031 4.79688C62.4531 6.02083 61.3236 7.47591 60.3145 9.16211C59.9434 9.7806 59.6016 10.4349 59.2891 11.125C60.4023 10.2721 61.5482 9.71224 62.7266 9.44531C63.0977 9.36068 63.446 9.31836 63.7715 9.31836C64.3965 9.31836 64.709 9.60482 64.709 10.1777C64.709 10.7181 64.3737 11.3529 63.7031 12.082C63.1237 12.707 62.4792 13.2148 61.7695 13.6055C61.9128 14.0221 62.0788 14.3444 62.2676 14.5723C62.4564 14.7936 62.7005 14.9043 63 14.9043C63.306 14.9043 63.5957 14.8457 63.8691 14.7285C64.1491 14.6048 64.4225 14.4453 64.6895 14.25C65.2168 13.8529 65.679 13.3581 66.0762 12.7656C66.3691 12.7461 66.5156 12.8665 66.5156 13.127C66.5156 13.3353 66.3789 13.6738 66.1055 14.1426C65.8385 14.6048 65.5749 15.0052 65.3145 15.3438C65.054 15.6823 64.7611 16.0176 64.4355 16.3496C64.11 16.6751 63.7617 16.9648 63.3906 17.2188C62.5573 17.7982 61.7402 18.0879 60.9395 18.0879C59.6504 18.0879 58.9701 16.9323 58.8984 14.6211C58.8919 14.3021 58.8854 14.0091 58.8789 13.7422C59.6732 13.4427 60.3698 13.1042 60.9688 12.7266C61.5742 12.349 62.0007 12.0625 62.248 11.8672C62.8079 11.4115 63.0879 11.0241 63.0879 10.7051C63.0879 10.5618 63.0098 10.4902 62.8535 10.4902C62.6973 10.4902 62.515 10.526 62.3066 10.5977C62.0983 10.6628 61.8639 10.7572 61.6035 10.8809C61.3431 10.998 61.0664 11.1413 60.7734 11.3105C60.487 11.4798 60.2038 11.6654 59.9238 11.8672C59.2923 12.3359 58.8073 12.7982 58.4688 13.2539C58.0195 14.6992 57.7819 16.151 57.7559 17.6094ZM68.5371 14.1621C68.9147 14.8392 69.7708 15.1777 71.1055 15.1777C71.9388 15.1777 72.7233 14.9759 73.459 14.5723C74.2012 14.1621 74.8359 13.5599 75.3633 12.7656C75.6562 12.7461 75.8027 12.8665 75.8027 13.127C75.8027 13.4199 75.627 13.8431 75.2754 14.3965C74.9303 14.9434 74.6048 15.3861 74.2988 15.7246C73.9993 16.0632 73.6608 16.3789 73.2832 16.6719C72.9121 16.9583 72.5117 17.2057 72.082 17.4141C71.151 17.8698 70.1712 18.0977 69.1426 18.0977C67.0723 18.0977 65.7279 17.5247 65.1094 16.3789C64.888 15.9622 64.7773 15.487 64.7773 14.9531C64.7773 14.4128 64.8685 13.918 65.0508 13.4688C65.2396 13.0195 65.4967 12.5931 65.8223 12.1895C66.1478 11.7793 66.5352 11.4017 66.9844 11.0566C67.4336 10.7116 67.9219 10.4154 68.4492 10.168C69.569 9.6276 70.7116 9.35742 71.877 9.35742C72.7168 9.35742 73.293 9.62109 73.6055 10.1484C73.7161 10.3307 73.7715 10.5749 73.7715 10.8809C73.7715 11.1803 73.6934 11.4766 73.5371 11.7695C73.3874 12.0625 73.1823 12.3294 72.9219 12.5703C72.6615 12.8047 72.3587 13.013 72.0137 13.1953C71.6686 13.3711 71.3008 13.5241 70.9102 13.6543C70.2201 13.8887 69.429 14.0579 68.5371 14.1621ZM68.4004 13.2539C69.2337 13.1562 69.9499 12.9251 70.5488 12.5605C71.1803 12.1699 71.4961 11.7142 71.4961 11.1934C71.4961 10.666 71.2552 10.4023 70.7734 10.4023C70.1484 10.4023 69.6048 10.7018 69.1426 11.3008C68.6999 11.8737 68.4525 12.5247 68.4004 13.2539Z" fill="url(#paint1_linear_201_29)"/>
<defs>
<linearGradient id="paint0_linear_201_29" x1="-2" y1="9" x2="18.5" y2="26" gradientUnits="userSpaceOnUse">
<stop stop-color="#FD5564"/>
<stop offset="1" stop-color="#EF4A75"/>
</linearGradient>
<linearGradient id="paint1_linear_201_29" x1="28" y1="25" x2="74" y2="25" gradientUnits="userSpaceOnUse">
<stop stop-color="#EF4A75"/>
<stop offset="0.98351" stop-color="#FCA545"/>
</linearGradient>
</defs>
</svg>
