<svg width="24" height="24" viewBox="0 0 24 24" fill="none" xmlns="http://www.w3.org/2000/svg">
<path d="M0.852555 1.07373V2.32623L3.44821 4.85889C3.66361 4.59465 3.90398 4.35181 4.16601 4.13373L1.03124 1.07378H0.852509L0.852555 1.07373ZM15.9946 3.78662C14.4468 3.80368 12.8122 4.68114 11.8476 6.55375L11.4565 7.31251L11.0684 6.5522C9.84956 4.16748 7.88709 3.53504 6.18604 4.02686C4.48499 4.51876 3.02906 6.18282 2.99409 8.71736C2.95696 11.4167 4.58737 13.0458 6.43063 14.8433C8.06113 16.4333 9.84768 18.1385 10.4531 20.7173C11.6511 19.1456 12.9949 17.8411 14.2837 16.6552L10.6479 13.1206H10.6465V13.1192C10.3568 12.8353 10.2359 12.4427 10.286 12.101C10.3362 11.7593 10.5198 11.473 10.7548 11.2559C10.9899 11.0386 11.2849 10.8826 11.6176 10.8398C11.7027 10.8288 11.7886 10.8268 11.874 10.8339C12.1351 10.856 12.4029 10.9618 12.6123 11.1665C12.6126 11.1667 12.6134 11.1662 12.6137 11.1665L16.2612 14.7128L16.2641 14.7158L16.2655 14.7172C16.2867 14.7384 16.3076 14.7579 16.3285 14.7787C16.3746 14.7353 16.422 14.6918 16.4677 14.6484C18.5084 12.7101 19.9778 10.9174 20.0141 8.37746C20.0528 5.65937 18.5765 4.19936 16.8163 3.85984C16.5945 3.81737 16.3696 3.79339 16.1439 3.78812C16.0941 3.78669 16.0443 3.78617 15.9945 3.78657L15.9946 3.78662ZM11.77 11.7041C11.7569 11.705 11.7435 11.7067 11.729 11.7085C11.6128 11.7235 11.4629 11.7943 11.3496 11.899C11.2362 12.0038 11.1669 12.1339 11.1532 12.2272C11.1396 12.3199 11.144 12.3806 11.2573 12.4923L11.2587 12.4937L14.9076 16.0402L14.9092 16.0416C16.1753 17.2822 16.8415 18.1477 16.8267 19.0489C16.8192 19.4996 16.5938 19.9045 16.2626 20.2135C16.091 20.3736 15.89 20.5169 15.6636 20.6529C17.7159 21.8724 20.5784 22.9539 23.0273 23.2031C22.9769 20.8171 21.7776 18.1536 20.4419 16.1264C20.3861 16.2428 20.3272 16.3589 20.2588 16.4693C20.0386 16.824 19.7202 17.1544 19.2641 17.2779C18.8082 17.4013 18.284 17.2996 17.7041 16.9878C17.1252 16.6766 16.4618 16.1522 15.6504 15.3413L15.646 15.337L12.0014 11.7935H12C11.9247 11.7197 11.8622 11.6982 11.77 11.7041Z" fill="url(#paint0_linear_201_24)"/>
<defs>
<linearGradient id="paint0_linear_201_24" x1="-2" y1="9" x2="18.5" y2="26" gradientUnits="userSpaceOnUse">
<stop stop-color="#FD5564"/>
<stop offset="0.588542" stop-color="#EF4A75"/>
<stop offset="1" stop-color="#FCA545"/>
</linearGradient>
</defs>
</svg>
